<svg xmlns="http://www.w3.org/2000/svg" xmlns:xlink="http://www.w3.org/1999/xlink" width="1080" zoomAndPan="magnify" viewBox="0 0 810 1012.49997" height="1350" preserveAspectRatio="xMidYMid meet" version="1.0"><defs><clipPath id="146c84571d"><path d="M 243.078125 324.542969 L 586.410156 324.542969 L 586.410156 667.871094 L 243.078125 667.871094 Z M 243.078125 324.542969 " clip-rule="nonzero"/></clipPath></defs><path fill="#ffffff" d="M 414.769531 326.832031 C 508.351562 326.832031 584.167969 402.648438 584.167969 496.230469 C 584.167969 589.8125 508.351562 665.628906 414.769531 665.628906 C 321.1875 665.628906 245.367188 589.8125 245.367188 496.230469 C 245.367188 402.648438 321.1875 326.832031 414.769531 326.832031 Z M 414.769531 326.832031 " fill-opacity="1" fill-rule="nonzero"/><g clip-path="url(#146c84571d)"><path fill="#ffffff" d="M 414.769531 667.917969 C 320.089844 667.917969 243.078125 590.910156 243.078125 496.230469 C 243.078125 401.550781 320.089844 324.542969 414.769531 324.542969 C 509.449219 324.542969 586.457031 401.550781 586.457031 496.230469 C 586.457031 590.910156 509.449219 667.917969 414.769531 667.917969 Z M 414.769531 329.121094 C 322.652344 329.121094 247.660156 404.113281 247.660156 496.230469 C 247.660156 588.347656 322.652344 663.339844 414.769531 663.339844 C 506.886719 663.339844 581.878906 588.347656 581.878906 496.230469 C 581.878906 404.113281 506.886719 329.121094 414.769531 329.121094 Z M 414.769531 329.121094 " fill-opacity="1" fill-rule="nonzero"/></g><path fill="#2273ff" d="M 519.035156 458.925781 L 419.800781 409.308594 C 419.039062 408.929688 418.246094 408.644531 417.417969 408.449219 C 416.585938 408.253906 415.746094 408.15625 414.894531 408.15625 C 414.046875 408.15625 413.203125 408.253906 412.375 408.449219 C 411.546875 408.644531 410.753906 408.929688 409.988281 409.308594 L 343.835938 442.386719 L 310.757812 458.925781 L 299.730469 464.4375 C 298.824219 464.898438 297.992188 465.46875 297.242188 466.15625 C 296.492188 466.847656 295.847656 467.621094 295.3125 468.488281 C 294.777344 469.355469 294.371094 470.277344 294.089844 471.257812 C 293.8125 472.234375 293.671875 473.234375 293.667969 474.25 L 293.667969 540.40625 L 315.71875 540.40625 L 315.71875 481.085938 L 337.769531 492.113281 L 337.769531 534.34375 C 337.769531 557.054688 372.171875 584.621094 414.953125 584.621094 C 457.730469 584.621094 492.132812 557.164062 492.132812 534.34375 L 492.132812 492.113281 L 519.144531 478.660156 C 522.894531 476.789062 525.210938 472.929688 525.210938 468.847656 C 525.210938 464.769531 522.894531 460.910156 519.144531 459.035156 Z M 353.648438 462.125 L 414.839844 431.472656 L 489.375 468.738281 L 414.839844 506.007812 L 340.304688 468.738281 L 353.648438 462.011719 Z M 469.96875 534.34375 C 469.96875 542.722656 446.707031 562.570312 414.839844 562.570312 C 382.976562 562.570312 359.710938 542.832031 359.710938 534.34375 L 359.710938 503.140625 L 409.878906 528.277344 C 411.421875 529.050781 413.078125 529.492188 414.839844 529.492188 C 416.605469 529.492188 418.257812 529.050781 419.800781 528.277344 L 469.96875 503.140625 Z M 469.96875 534.34375 " fill-opacity="1" fill-rule="nonzero"/></svg>